<?xml version="1.0" encoding="UTF-8"?>
<!-- Generated by Pixelmator Pro 3.6.10 -->
<svg width="6961" height="2164" viewBox="0 0 6961 2164" xmlns="http://www.w3.org/2000/svg">
    <path id="path2" fill="#000000" stroke="none" d="M 457.797119 1685.251953 C 715.752075 1885.520508 1049.893066 1983.172852 1290.888428 2030.169922 C 1615.884277 2093.548828 1950.869629 2105.047852 2274.823975 2116.168945 C 2288.764404 2116.697266 2300.190186 2105.841797 2300.66626 2092.043457 C 2300.894043 2085.456055 2298.550293 2079.372559 2294.53418 2074.766602 C 2782.371826 2133.567383 3255.345703 2163.19043 3709.329102 2163.19043 C 3711.916992 2163.19043 3714.520996 2163.19043 3717.108887 2163.19043 C 4640.558594 2162.498047 5483.258789 2038.308105 6221.79248 1794.061523 C 6394.35498 1736.989746 6573.928711 1669.521484 6718.219727 1563.165527 C 6877.082031 1446.075684 6965.20459 1294.256836 6959.988281 1146.645508 C 6954.48291 990.924316 6846.063965 829.124512 6662.535645 702.730469 C 6499.864746 590.708984 6299.539063 516.91748 6107.294434 453.861816 C 5713.28418 324.62793 5300.523926 221.905762 4880.487793 148.547852 C 4639.354492 106.435547 4394.827148 73.822266 4149.254395 50.95459 C 4883.958984 49.48584 5623.220703 93.319336 6351.195313 181.500488 C 6364.895508 183.154785 6377.358887 173.397461 6379.019043 159.688477 C 6380.679199 145.982422 6370.91748 133.522949 6357.208984 131.862793 C 5527.960938 31.415039 4684.137695 -11.580078 3849.083496 4.05127 C 3736.086914 6.166992 3623.208496 9.356934 3510.39502 13.621582 C 3121.422363 4.405273 2732.465576 19.883789 2352.712891 59.747559 C 1992.711182 97.540527 1638.772461 157.487305 1298.143311 238.283691 C 978.929443 292.535645 629.328247 369.26123 363.402222 541.04248 C 218.264648 634.798828 105.829712 761.865723 46.810791 898.834473 C -18.311646 1049.963867 -15.070679 1201.397949 56.181763 1336.77002 C 126.736328 1470.81543 268.341919 1593.349609 457.797119 1685.251953 Z M 1300.45874 1981.097656 C 1126.56543 1947.182617 903.229614 1886.452637 697.585938 1778.839844 C 834.552856 1822.092773 976.195068 1852.948242 1112.661621 1881.012695 C 1483.653564 1957.314453 1848.464844 2018.276367 2205.585693 2063.743164 C 1905.809326 2053.196289 1598.025391 2039.125977 1300.45874 1981.097656 Z M 1308.112549 287.307129 C 1334.056396 282.902344 1359.797119 278.646484 1385.273193 274.498047 C 2078.953857 161.574707 2792.406006 90.845215 3510.73291 63.643555 C 3545.010254 64.461914 3579.275391 65.470703 3613.548828 66.675293 C 4035.130859 81.486328 4458.495117 125.604492 4871.88623 197.80127 C 5289.565918 270.748047 5699.974609 372.884766 6091.710449 501.371582 C 6280.402344 563.26123 6476.720215 635.47998 6634.174316 743.911133 C 6804.540039 861.234863 6905.081055 1008.669434 6910.020996 1148.411621 C 6914.643066 1279.270996 6833.922363 1415.773926 6688.556641 1522.915039 C 6549.893066 1625.120117 6374.730469 1690.818359 6206.094238 1746.592773 C 5472.618652 1989.162598 4635.191895 2112.502441 3717.072266 2113.19043 C 3714.443848 2113.19043 3711.95752 2113.19043 3709.333008 2113.19043 C 2900.116943 2113.19043 2029.820557 2018.59375 1122.736572 1832.038086 C 923.749634 1791.115723 713.750122 1744.245117 525.820801 1661.611328 C 511.746094 1655.422363 497.909424 1649.0625 484.343384 1642.551758 C 471.609375 1632.575195 459.080933 1622.341309 446.770142 1611.838867 C 334.953735 1516.441406 251.007935 1403.103027 204.004761 1284.068359 C 155.243774 1160.577637 149.665161 1037.309082 187.875244 927.586426 C 278.192993 668.23584 591.692017 471.96875 1146.283936 327.572266 C 1199.872803 313.617188 1253.807373 300.199707 1308.112549 287.307129 Z M 92.729614 918.620117 C 147.868774 790.653809 253.630493 671.476563 390.532349 583.042969 C 431.66394 556.472168 474.939819 532.235352 519.939087 510.02832 C 321.93689 622.023926 194.357178 756.939941 140.658447 911.143555 C 98.452637 1032.338867 104.275391 1167.645508 157.500122 1302.431641 C 188.640259 1381.292969 234.835693 1457.644043 293.769165 1528.351074 C 206.954834 1463.214355 140.811035 1390.204102 100.428101 1313.479004 C 36.4552 1191.9375 33.791992 1055.397949 92.729614 918.620117 Z"/>
</svg>
