<?xml version="1.0" encoding="UTF-8"?>
<!-- Generated by Pixelmator Pro 3.6.10 -->
<svg width="6818" height="2177" viewBox="0 0 6818 2177" xmlns="http://www.w3.org/2000/svg">
    <path id="path3" fill="#000000" stroke="none" d="M 6475.336914 862.795898 C 6324.519043 775.24707 6121.162109 694.078613 5870.913574 621.536133 C 4426.073242 202.708984 2728.172852 137.437988 1212.592529 442.479492 C 1199.054932 445.20166 1190.290283 458.385254 1193.016602 471.918945 C 1195.73877 485.456055 1208.926514 494.237305 1222.455811 491.495117 C 2730.402588 187.995117 4419.62793 252.896484 5856.993652 669.558594 C 6103.339844 740.969727 6302.932617 820.53125 6450.230957 906.037598 C 6633.45459 1012.397461 6738.552734 1129.214355 6762.60498 1253.237793 C 6781.554199 1350.942871 6746.243164 1454.865723 6660.48877 1553.770996 C 6579.584961 1647.081543 6454.470703 1733.914063 6308.202148 1798.269531 C 6015.546875 1927.033203 5654.128906 1981.773438 5307.160645 2021.748047 C 4631.428223 2099.600586 3938.105469 2134.374023 3246.511719 2125.083984 C 2554.898193 2115.802734 1864.61499 2062.466797 1194.8396 1966.55957 C 923.859619 1927.757813 615.711548 1875.914551 388.31897 1751.162598 C 287.665894 1695.946289 207.667114 1627.937012 150.544312 1549.030762 C 97.154785 1475.275879 64.85498 1393.720703 54.546143 1306.623535 C 31.629517 1113.003418 119.418335 910.273438 295.40918 750.417969 C 587.053467 485.509277 1093.610596 290.119141 1801.00415 169.668945 C 2523.497559 46.64209 3307.738281 18.097656 4068.936035 87.096191 C 4829.983398 156.085938 5568.916016 322.675781 6205.850098 568.84668 C 6218.716309 573.814941 6233.202148 567.422852 6238.182617 554.540039 C 6243.15918 541.661621 6236.754395 527.184082 6223.875977 522.208008 C 5900.759766 397.325684 5552.310059 292.560547 5188.203125 210.818359 C 4828.954102 130.170898 4453.896973 71.788574 4073.452637 37.299805 C 3307.990723 -32.088867 2519.29834 -3.35791 1792.61377 120.376953 C 1075.654053 242.455078 560.613037 441.979004 261.791016 713.40625 C 73.686768 884.26416 -19.949341 1102.627441 4.894043 1312.499023 C 28.185059 1509.288574 155.815674 1680.642578 364.271118 1795.002441 C 599.012329 1923.782227 912.417725 1976.630859 1187.751221 2016.055664 C 1859.646729 2112.267578 2552.086426 2165.770508 3245.840332 2175.080078 C 3319.050293 2176.06543 3392.17041 2176.553711 3465.395996 2176.553711 C 4086.058594 2176.548828 4706.570313 2141.275391 5312.881348 2071.421875 C 5663.748047 2030.99707 6029.609375 1975.470703 6328.335449 1844.038086 C 6483.45459 1775.788574 6611.375977 1686.742188 6698.265625 1586.526367 C 6794.453125 1475.593262 6833.674316 1357.050781 6811.693359 1243.716309 C 6784.768555 1104.885742 6671.601563 976.728516 6475.336914 862.795898 Z"/>
</svg>
