<?xml version="1.0" encoding="UTF-8"?>
<!-- Generated by Pixelmator Pro 3.6.10 -->
<svg width="6802" height="2180" viewBox="0 0 6802 2180" xmlns="http://www.w3.org/2000/svg">
    <path id="path1" fill="#000000" stroke="none" d="M 201.314209 1754.47168 C 274.959229 1810.001465 368.172119 1857.576172 470.878052 1892.052734 C 743.487427 1983.564941 1096.181152 2054.677246 1519.166992 2103.415527 C 1907.627197 2148.176758 2347.104736 2173.337402 2825.384521 2178.198242 C 2882.020996 2178.773926 2938.905762 2179.060547 2996.010254 2179.060547 C 3838.560059 2179.058594 4725.612305 2116.847656 5455.242676 2005.669922 C 5837.87207 1947.367188 6143.455078 1856.638184 6363.50293 1736.006348 C 6654.058594 1576.720703 6801.381348 1363.008301 6801.381348 1100.80127 C 6801.381348 882.05957 6690.333984 696.777344 6471.327637 550.099609 C 6265.655273 412.357422 5970.452637 312.619629 5593.914551 253.660156 C 5006.80127 161.726563 4393.731445 96.335938 3728.615234 54.905273 C 4352.508301 60.996094 4984.120605 102.310547 5565.15918 140.323242 C 5919.431641 163.50293 6254.058594 185.396484 6566.554688 198.435547 C 6580.369141 198.980469 6591.998047 188.289063 6592.576172 174.49707 C 6593.149902 160.703125 6582.432129 149.053711 6568.638184 148.477539 C 6256.731934 135.462891 5922.393555 113.589844 5568.422363 90.431641 C 4744.671387 36.539063 3819.793457 -23.978516 2957.000488 18.363281 C 2420.135498 0.522461 1839.215088 -3.994141 1194.679688 4.537109 C 1180.873535 4.719727 1169.830322 16.060547 1170.013428 29.866211 C 1170.192383 43.558594 1181.349609 54.535156 1195.001221 54.535156 C 1195.11499 54.535156 1195.229004 54.532227 1195.338867 54.532227 C 1645.290039 48.580078 2064.157959 48.990234 2458.628174 55.857422 C 1534.226318 152.032227 848.443481 385.84375 367.59436 767.728516 C 218.446777 886.177246 108.133911 1024.263184 48.579834 1167.052734 C -6.862427 1299.985352 -14.917114 1430.983398 25.901245 1535.913086 C 57.423828 1616.943359 116.440796 1690.476074 201.314209 1754.47168 Z M 94.72644 1186.299316 C 151.035522 1051.289551 256.144165 920.088379 398.689697 806.882324 C 918.153809 394.333496 1683.595703 157.080078 2738.759277 81.558594 C 2811.090088 76.382813 2884.018799 72.019531 2957.378906 68.404297 C 3108.180664 73.426758 3255.495117 79.501953 3399.757813 86.636719 C 4190.826172 125.760742 4906.011719 196.553711 5586.183594 303.057617 C 5955.479004 360.884277 6243.922852 457.977051 6443.503906 591.644043 C 6647.796387 728.464355 6751.381348 899.77002 6751.381348 1100.80127 C 6751.381348 1227.970215 6713.348145 1343.935059 6638.340332 1445.477051 C 6570.098633 1537.855957 6469.54541 1620.853516 6339.467285 1692.163086 C 6124.566406 1809.972656 5824.538086 1898.821777 5447.710938 1956.239746 C 4671.160645 2074.566406 3715.492676 2137.247559 2825.893066 2128.202148 C 2349.346924 2123.35791 1911.627197 2098.307129 1524.887939 2053.745117 C 1105.36499 2005.40332 756.09729 1935.056152 486.789917 1844.65332 C 276.902222 1774.196289 125.89917 1655.057617 72.499512 1517.785156 C 36.391113 1424.962891 44.285034 1307.240723 94.72644 1186.299316 Z"/>
</svg>
